HIERARCHY
ROOT Hips
{
	OFFSET 0.000000 0.000000 0.000000
	CHANNELS 6 Xposition Yposition Zposition Xrotation Yrotation Zrotation
	JOINT LeftUpLeg_virtual
	{
		OFFSET 0.000000 0.000000 0.000000
		CHANNELS 3 Xrotation Yrotation Zrotation
		JOINT LeftUpLeg
		{
			OFFSET 15.427100 -6.655098 0.678600
			CHANNELS 3 Xrotation Yrotation Zrotation
			JOINT LeftLeg
			{
				OFFSET 4.081073 -39.591068 13.024000
				CHANNELS 3 Xrotation Yrotation Zrotation
				JOINT LeftFoot
				{
					OFFSET -4.081074 -37.707932 -15.979700
					CHANNELS 3 Xrotation Yrotation Zrotation
					JOINT LeftToeBase
					{
						OFFSET 5.346399 -15.068900 20.645000
						CHANNELS 3 Xrotation Yrotation Zrotation
						JOINT LeftToe_End
						{
							OFFSET 2.754700 0.931300 11.300900
							CHANNELS 3 Xrotation Yrotation Zrotation
							End Site
							{
								OFFSET 0 0 0
							}
						}
					}
				}
			}
		}
	}
	JOINT RightUpLeg_virtual
	{
		OFFSET 0.000000 0.000000 0.000000
		CHANNELS 3 Xrotation Yrotation Zrotation
		JOINT RightUpLeg
		{
			OFFSET -15.569500 -6.655098 0.678600
			CHANNELS 3 Xrotation Yrotation Zrotation
			JOINT RightLeg
			{
				OFFSET -4.081825 -39.591045 13.023800
				CHANNELS 3 Xrotation Yrotation Zrotation
				JOINT RightFoot
				{
					OFFSET 4.081824 -37.707954 -15.979600
					CHANNELS 3 Xrotation Yrotation Zrotation
					JOINT RightToeBase
					{
						OFFSET -5.346400 -15.068900 20.645000
						CHANNELS 3 Xrotation Yrotation Zrotation
						JOINT RightToe_End
						{
							OFFSET -2.754700 0.931300 11.300900
							CHANNELS 3 Xrotation Yrotation Zrotation
							End Site
							{
								OFFSET 0 0 0
							}
						}
					}
				}
			}
		}
	}
	JOINT Spine_virtual
	{
		OFFSET 0.000000 0.000000 0.000000
		CHANNELS 3 Xrotation Yrotation Zrotation
		JOINT Spine
		{
			OFFSET -0.279200 12.230698 -2.892100
			CHANNELS 3 Xrotation Yrotation Zrotation
			JOINT Spine1
			{
				OFFSET -0.232667 10.192268 -1.242267
				CHANNELS 3 Xrotation Yrotation Zrotation
				JOINT Spine1_split
				{
					OFFSET -0.232667 10.192268 -1.242267
					CHANNELS 3 Xrotation Yrotation Zrotation
					JOINT Spine2
					{
						OFFSET -0.232667 10.192268 -1.242267
						CHANNELS 3 Xrotation Yrotation Zrotation
						JOINT Neck_virtual
						{
							OFFSET 0.000000 0.000000 0.000000
							CHANNELS 3 Xrotation Yrotation Zrotation
							JOINT Neck
							{
								OFFSET -0.418800 17.814194 8.416900
								CHANNELS 3 Xrotation Yrotation Zrotation
								JOINT Head
								{
									OFFSET 0.000000 7.031097 3.806800
									CHANNELS 3 Xrotation Yrotation Zrotation
									JOINT HeadTop_End
									{
										OFFSET 0.000000 24.646606 12.978600
										CHANNELS 3 Xrotation Yrotation Zrotation
										End Site
										{
											OFFSET 0 0 0
										}
									}
								}
							}
						}
						JOINT LeftShoulder_virtual
						{
							OFFSET 0.000000 0.000000 0.000000
							CHANNELS 3 Xrotation Yrotation Zrotation
							JOINT LeftShoulder
							{
								OFFSET 8.476499 7.247704 -3.868750
								CHANNELS 3 Xrotation Yrotation Zrotation
								JOINT LeftShoulder_split
								{
									OFFSET 8.476499 7.247704 -3.868750
									CHANNELS 3 Xrotation Yrotation Zrotation
									JOINT LeftArm
									{
										OFFSET 9.308998 -2.777710 0.208600
										CHANNELS 3 Xrotation Yrotation Zrotation
										JOINT LeftForeArm
										{
											OFFSET 29.972298 0.000000 0.000000
											CHANNELS 3 Xrotation Yrotation Zrotation
											JOINT LeftHand
											{
												OFFSET 26.026505 0.000000 0.000000
												CHANNELS 3 Xrotation Yrotation Zrotation
												End Site
												{
													OFFSET 0 0 0
												}
											}
										}
									}
								}
							}
						}
						JOINT RightShoulder_virtual
						{
							OFFSET 0.000000 0.000000 0.000000
							CHANNELS 3 Xrotation Yrotation Zrotation
							JOINT RightShoulder
							{
								OFFSET -7.570500 7.247704 -3.868750
								CHANNELS 3 Xrotation Yrotation Zrotation
								JOINT RightShoulder_split
								{
									OFFSET -7.570500 7.247704 -3.868750
									CHANNELS 3 Xrotation Yrotation Zrotation
									JOINT RightArm
									{
										OFFSET -9.308998 -2.777710 0.208500
										CHANNELS 3 Xrotation Yrotation Zrotation
										JOINT RightForeArm
										{
											OFFSET -29.972300 0.000000 0.000000
											CHANNELS 3 Xrotation Yrotation Zrotation
											JOINT RightHand
											{
												OFFSET -26.026505 0.000000 0.000000
												CHANNELS 3 Xrotation Yrotation Zrotation
												End Site
												{
													OFFSET 0 0 0
												}
											}
										}
									}
								}
							}
						}
					}
				}
			}
		}
	}
}
MOTION
Frames: 7
Frame Time: 0.03333333
10.204078 78.060326 -0.224579 0.000000 0.000000 0.000000 9.504320 -0.711048 -10.988524 -46.642792 -10.402611 34.147124 45.186742 -2.440346 -6.348734 -1.428047 0.895412 -16.777835 -1.598294 0.095259 0.613562 0.000000 0.000000 0.000000 10.166026 -1.677736 -11.636220 -30.304597 -24.088629 4.471134 43.552527 10.079720 6.655078 -19.547844 -17.323416 -7.874403 0.819183 0.584220 -1.091452 0.000000 0.000000 0.000000 8.837329 0.315049 -11.934624 7.698185 -3.254678 -7.171082 5.372535 -1.760369 -6.252191 1.297034 0.931673 0.579112 0.000000 0.000000 0.000000 7.735690 -1.749119 -6.365876 -6.734841 0.422737 -6.764764 -29.690207 -12.537400 13.299576 0.000000 0.000000 0.000000 6.747542 -1.513080 -6.037937 0.895257 -5.078615 -7.558561 -1.059018 -3.994412 0.351762 -27.366644 7.782091 -19.383670 2.480789 -59.048051 2.298539 0.000000 0.000000 0.000000 6.503275 -1.878622 -6.033785 1.874209 -1.899970 4.228950 6.464252 4.231542 -3.066863 25.026788 -8.658088 81.098162 8.884901 80.452887 -7.893579 0.000000 0.000000 0.000000 
10.358437 77.120705 -1.313061 0.000000 0.000000 0.000000 9.200163 -1.932069 -10.267282 -47.557156 -11.264294 33.833970 46.929267 -1.630264 -6.446497 -1.111273 1.322940 -16.698853 -0.974405 0.150765 0.699686 0.000000 0.000000 0.000000 9.784758 -2.707477 -10.941635 -32.171933 -22.685075 4.718043 45.396839 9.423330 6.433275 -19.733718 -17.637729 -8.018985 0.706209 0.637558 -1.289794 0.000000 0.000000 0.000000 8.467967 -0.918657 -11.371753 8.528545 -2.806002 -6.683730 5.902793 -1.495073 -5.955891 1.365646 0.934253 0.623840 0.000000 0.000000 0.000000 8.020335 -1.515862 -6.090752 -5.813381 0.296794 -6.610299 -28.709782 -11.959535 12.963950 0.000000 0.000000 0.000000 7.153779 -1.340381 -5.922594 0.942101 -5.275925 -8.446789 -0.877362 -4.023849 0.568931 -24.438767 12.096486 -22.889965 2.066895 -56.658000 1.977203 0.000000 0.000000 0.000000 7.071690 -1.597768 -5.738036 1.867915 -0.775916 5.039059 6.128678 3.833290 -3.076629 21.967587 -5.582876 79.510669 6.433018 76.560342 -5.532645 0.000000 0.000000 0.000000 
10.397393 76.501762 -2.238976 0.000000 0.000000 0.000000 8.869352 -2.997333 -9.651687 -47.992761 -11.862338 33.593906 47.895469 -0.662704 -6.563392 -0.943952 1.796169 -16.521965 -0.450268 0.202294 0.590903 0.000000 0.000000 0.000000 9.300511 -3.665146 -10.325299 -33.633706 -21.357382 5.018365 46.571508 8.726669 6.255407 -19.675099 -17.760049 -7.975526 0.860961 0.690203 -1.403005 0.000000 0.000000 0.000000 8.043924 -2.256972 -10.860562 9.176701 -2.452758 -6.317770 6.293697 -1.278904 -5.696882 1.408548 0.996146 0.491193 0.000000 0.000000 0.000000 8.157268 -1.333124 -5.828799 -5.044058 0.288100 -6.497968 -27.168361 -11.278837 12.784778 0.000000 0.000000 0.000000 7.399754 -1.195433 -5.829411 0.984595 -5.425778 -9.293596 -0.927197 -3.721674 0.820907 -21.474618 15.134680 -26.860774 1.557744 -53.299159 1.576972 0.000000 0.000000 0.000000 7.520890 -1.357294 -5.495481 1.801130 0.260012 5.861880 5.767828 3.543993 -2.990244 18.883052 -2.689910 77.703579 5.070623 72.894497 -4.293716 0.000000 0.000000 0.000000 
10.316293 76.235733 -2.950607 0.000000 0.000000 0.000000 8.417651 -3.921890 -9.165752 -48.011903 -12.278615 33.472691 48.246650 0.220649 -6.654053 -0.669413 2.103526 -16.427122 -0.184441 0.226529 0.365911 0.000000 0.000000 0.000000 8.770578 -4.547998 -9.839603 -34.584735 -20.096747 5.469102 47.017158 8.018616 6.068899 -19.227911 -17.734520 -7.704817 0.942409 0.725304 -1.433340 0.000000 0.000000 0.000000 7.555236 -3.678221 -10.413179 9.562491 -2.185333 -6.076783 6.491574 -1.118480 -5.490908 1.357337 1.161070 0.288032 0.000000 0.000000 0.000000 8.092085 -1.192510 -5.614108 -4.400130 0.330735 -6.413685 -25.076005 -10.629509 12.807460 0.000000 0.000000 0.000000 7.450750 -1.082263 -5.763608 1.018457 -5.456858 -10.090175 -1.090896 -3.326093 1.008690 -18.631675 16.790683 -30.896812 1.109584 -49.497770 1.224180 0.000000 0.000000 0.000000 7.782534 -1.153505 -5.330788 1.684928 1.152840 6.721439 5.576590 3.432503 -2.819367 15.831894 -0.011056 75.910511 4.186856 69.482456 -3.543852 0.000000 0.000000 0.000000 
10.131101 76.297783 -3.496113 0.000000 0.000000 0.000000 7.771499 -4.785416 -8.836200 -47.560455 -12.517177 33.481188 48.182975 0.908700 -6.692400 -0.192461 2.236837 -16.241876 -0.067776 0.208588 0.118330 0.000000 0.000000 0.000000 8.176811 -5.431402 -9.473879 -34.906307 -18.881127 6.140465 46.685248 7.295862 5.873294 -18.433021 -17.631440 -7.385057 0.892996 0.717679 -1.391497 0.000000 0.000000 0.000000 6.972655 -5.180774 -10.037462 9.638135 -1.976534 -5.944011 6.489831 -1.014201 -5.345579 1.324527 1.490727 0.107588 0.000000 0.000000 0.000000 7.802995 -1.084962 -5.462339 -3.786651 0.359465 -6.310611 -22.341938 -10.097169 13.037239 0.000000 0.000000 0.000000 7.316741 -0.997857 -5.723515 1.042676 -5.360576 -10.872075 -1.491265 -2.924970 1.010456 -16.056393 17.161530 -34.601400 0.858171 -45.880201 1.009834 0.000000 0.000000 0.000000 7.803051 -0.987769 -5.254659 1.558912 1.871912 7.590046 5.524270 3.443441 -2.668156 12.929243 2.516383 74.281859 3.556239 66.438288 -3.022473 0.000000 0.000000 0.000000 
9.840168 76.662636 -3.836742 0.000000 0.000000 0.000000 6.922410 -5.535280 -8.634840 -46.493948 -12.465541 33.625759 47.702468 1.482714 -6.684334 0.290584 2.361838 -15.815045 0.148617 0.167674 -0.093101 0.000000 0.000000 0.000000 7.432821 -6.299527 -9.224765 -34.566337 -17.767923 6.980838 45.636933 6.525147 5.673478 -17.412584 -17.485438 -7.178166 0.901626 0.657969 -1.311069 0.000000 0.000000 0.000000 6.188039 -6.690112 -9.722240 9.414188 -1.819664 -5.885553 6.289123 -0.976687 -5.260801 1.229981 1.810062 0.015239 0.000000 0.000000 0.000000 7.306162 -1.019793 -5.375317 -3.124057 0.344527 -6.143636 -18.889341 -9.684463 13.473175 0.000000 0.000000 0.000000 7.008444 -0.962175 -5.701226 1.053611 -5.149274 -11.623783 -2.040106 -2.596022 0.803810 -13.996978 16.424025 -37.673302 0.863031 -42.880037 0.966128 0.000000 0.000000 0.000000 7.576559 -0.876793 -5.261452 1.440147 2.379293 8.437375 5.500134 3.410801 -2.524333 10.380323 4.840787 72.801607 3.065056 64.108429 -2.616705 0.000000 0.000000 0.000000 
9.496974 77.282692 -4.081787 0.000000 0.000000 0.000000 5.889953 -6.298534 -8.527890 -44.765627 -12.052979 33.872127 46.739439 2.022502 -6.615661 0.564465 2.561248 -15.144285 0.383402 0.115661 -0.218226 0.000000 0.000000 0.000000 6.494879 -7.156376 -9.075761 -33.580994 -16.812651 7.961173 44.045861 5.658979 5.451146 -16.194529 -17.306803 -7.077659 0.898611 0.564158 -1.243332 0.000000 0.000000 0.000000 5.150904 -8.124196 -9.476859 8.934478 -1.698239 -5.854666 5.932434 -1.011706 -5.220828 1.112249 2.114565 0.032913 0.000000 0.000000 0.000000 6.641584 -1.000027 -5.341315 -2.358771 0.278741 -5.885287 -14.765911 -9.364820 14.089176 0.000000 0.000000 0.000000 6.537776 -0.981502 -5.686451 1.042044 -4.930766 -12.300653 -2.659393 -2.376555 0.405224 -12.796522 14.711126 -39.883698 1.095561 -40.581528 1.052819 0.000000 0.000000 0.000000 7.146554 -0.838499 -5.321034 1.341502 2.676498 9.255432 5.443409 3.323537 -2.439152 8.377695 6.960097 71.410174 2.676319 62.716375 -2.303315 0.000000 0.000000 0.000000 
